<svg id="Layer_1" data-name="Layer 1" xmlns="http://www.w3.org/2000/svg" viewBox="0 0 500 500"><defs><style>.cls-1{fill:#0e1436;}.cls-2{fill:#2bdfc6;}.cls-3{fill:#8effba;}.cls-4{fill:#1b8d98;}</style></defs><circle class="cls-1" cx="250" cy="250" r="239.7"/><path class="cls-2" d="M449.43,313.5a209.67,209.67,0,0,1-143,138.06h0A209.39,209.39,0,0,1,40.75,250.48C40.49,134.7,134.28,40.75,250,40.75a208.87,208.87,0,0,1,66.63,10.84,9.28,9.28,0,0,1,6.25,7,19.57,19.57,0,0,1-.67,9.08c-2,6.89-16.34,3.65-37,5.26s-33.49,7.84-33.49,7.84,31.9,4,58,24.49,41.39,43.44,36.06,49.41-6.9,6-15.2,4.55c-.49-.09-1-.17-1.63-.25-9.61-1.33-32.76-2.42-46,4.74a42.71,42.71,0,1,0-76.73-25.81c0,1.12.05,2.24.13,3.34a42.79,42.79,0,0,0,25.05,35.59v15.42H191.15c-8.76,0-16.27,6.8-16.58,15.55a15.87,15.87,0,0,0,2.07,8.48,16.1,16.1,0,0,0,14.05,8.24h38.83c-2.08,28.47,6,53.52,23.57,72.6,16.39,17.85,40.36,29.88,69.56,35l-4.78,4.74,22.81,3.56c-12.29,20.65-28.06,32.29-45.79,33.75-20.34,1.66-42.09-10.82-61.21-35.17l-5.48-7,.32,8.86c0,.3.88,30.31-18.22,33.46-18.29,3-40.54-14.16-52.88-33.46L178.09,336l-37-37.34-18.77-19-1.91,3.17c-10.13,16.76-13.2,49.77-7.12,76.79l1,4.25L130.85,352c3.13,7.88,12.36,26.68,33.75,43.43C175.48,404,187.87,409.1,200,413.93l2.06.82c15.8,6.28,30.81,12.25,41.19,24.75a51.44,51.44,0,0,1,3.34,4.5l2.38,3.61,2.43-3.6s.34-.49,1-1.29c3.77-4.75,18.84-21.45,49.65-29.79,35.48-9.6,55.46-40.83,64.87-60.71l16.84,12.29.82-4.52A167.92,167.92,0,0,0,387.36,335C393.3,334.31,425.72,329.71,449.43,313.5Z"/><path class="cls-2" d="M264.52,137.92c0,.16,0,.33,0,.48a15.54,15.54,0,0,1-31.08-.48c0-.25,0-.5,0-.74a15.54,15.54,0,0,1,31.07.74Z"/><path class="cls-3" d="M379.65,354.39l-15.11-11-1.45,3.27c-8.28,18.59-27.43,51.21-62.6,60.72-30,8.11-45.72,23.51-51.42,30.22-11.41-14.87-28.42-21.64-44.9-28.2-12.37-4.91-25.16-10-36-18.5-25.79-20.21-33-44-33.12-44.28l-1.14-3.9L118.09,354c-4.16-22.77-1.86-49.59,5.52-64.92l43.17,43.63-18.31,4.38,1.93,3.33c11.63,20.29,34.32,40,55.54,40a32.39,32.39,0,0,0,5.3-.43c17.22-2.84,21.63-21,22.73-31.64,17.93,20.6,37.94,31.68,57.29,31.68,1.37,0,2.74-.06,4.1-.16,20.47-1.69,39.09-16,52.44-40.33l2-3.61L330,332.91l.68-.67,43.95-40.82C381.87,309.54,383.49,330.23,379.65,354.39Z"/><path class="cls-3" d="M307.82,199H261.41V172.71a36.93,36.93,0,1,0-24.2.24v25.1H191a10.55,10.55,0,0,0-10.62,9.36,10.37,10.37,0,0,0,10.31,11.36h45.16l-.32,3.17c-3.17,32.25,7.34,59.29,28.86,78.16l-2-82.07h45.44a9.53,9.53,0,0,0,9.52-9.52h0A9.52,9.52,0,0,0,307.82,199ZM249,159.24a21.32,21.32,0,1,1,21.32-21.32A21.34,21.34,0,0,1,249,159.24Z"/><path class="cls-4" d="M231.44,176.85v15.42H190.69c-39.33-20.69-81.36,10.82-81.36,10.82s25.39-41,91.73-60.38q2.67-.78,5.33-1.45A42.79,42.79,0,0,0,231.44,176.85Z"/><path class="cls-4" d="M264.51,138.4a15.54,15.54,0,0,1-31.08-.48c0-.25,0-.5,0-.74A164.34,164.34,0,0,1,264.51,138.4Z"/><path class="cls-4" d="M329,159c-9.61-1.33-32.76-2.42-46,4.74a42.48,42.48,0,0,0,8.27-19.79C314.17,150.4,329,159,329,159Z"/><path class="cls-4" d="M243.23,439.5c-28.77-11-43.25-25.57-43.25-25.57l2.06.82C217.84,421,232.85,427,243.23,439.5Z"/><path class="cls-4" d="M233.68,339l-5.48-7,.32,8.86c0,.3.88,30.31-18.22,33.46-18.29,3-40.54-14.16-52.88-33.46L178.09,336l-37-37.34c.54-60.28,35.5-82.32,35.5-82.32a16.1,16.1,0,0,0,14.05,8.24h38.83c-2.08,28.47,6,53.52,23.57,72.6,16.39,17.85,40.36,29.88,69.56,35l-4.78,4.74,22.81,3.56c-12.29,20.65-28.06,32.29-45.79,33.75C274.55,375.83,252.8,363.35,233.68,339Z"/><path class="cls-4" d="M449.43,313.5a209.67,209.67,0,0,1-143,138.06h0a192.31,192.31,0,0,1-54-8.84c3.77-4.75,18.84-21.45,49.65-29.79,35.48-9.6,55.46-40.83,64.87-60.71l16.84,12.29.82-4.52A167.92,167.92,0,0,0,387.36,335C393.3,334.31,425.72,329.71,449.43,313.5Z"/></svg>